<svg width="3338" height="1147" viewBox="0 0 3338 1147" fill="none" xmlns="http://www.w3.org/2000/svg">
<rect width="3338" height="1147" fill="black"/>
<path d="M1156.8 660V492H1236.24C1254.8 492 1271.12 495.44 1285.2 502.32C1299.28 509.2 1310.24 518.88 1318.08 531.36C1326.08 543.84 1330.08 558.72 1330.08 576C1330.08 593.12 1326.08 608 1318.08 620.64C1310.24 633.12 1299.28 642.8 1285.2 649.68C1271.12 656.56 1254.8 660 1236.24 660H1156.8ZM1204.32 622.08H1234.32C1243.92 622.08 1252.24 620.32 1259.28 616.8C1266.48 613.12 1272.08 607.84 1276.08 600.96C1280.08 593.92 1282.08 585.6 1282.08 576C1282.08 566.24 1280.08 557.92 1276.08 551.04C1272.08 544.16 1266.48 538.96 1259.28 535.44C1252.24 531.76 1243.92 529.92 1234.32 529.92H1204.32V622.08ZM1421.08 662.16C1405.72 662.16 1392.28 659.28 1380.76 653.52C1369.4 647.6 1360.52 639.6 1354.12 629.52C1347.88 619.28 1344.76 607.68 1344.76 594.72C1344.76 581.76 1347.8 570.24 1353.88 560.16C1360.12 549.92 1368.68 542 1379.56 536.4C1390.44 530.64 1402.68 527.76 1416.28 527.76C1429.08 527.76 1440.76 530.4 1451.32 535.68C1461.88 540.8 1470.28 548.4 1476.52 558.48C1482.76 568.56 1485.88 580.8 1485.88 595.2C1485.88 596.8 1485.8 598.64 1485.64 600.72C1485.48 602.8 1485.32 604.72 1485.16 606.48H1382.2V582.48H1460.92L1443.64 589.2C1443.8 583.28 1442.68 578.16 1440.28 573.84C1438.04 569.52 1434.84 566.16 1430.68 563.76C1426.68 561.36 1421.96 560.16 1416.52 560.16C1411.08 560.16 1406.28 561.36 1402.12 563.76C1398.12 566.16 1395 569.6 1392.76 574.08C1390.52 578.4 1389.4 583.52 1389.4 589.44V596.4C1389.4 602.8 1390.68 608.32 1393.24 612.96C1395.96 617.6 1399.8 621.2 1404.76 623.76C1409.72 626.16 1415.64 627.36 1422.52 627.36C1428.92 627.36 1434.36 626.48 1438.84 624.72C1443.48 622.8 1448.04 619.92 1452.52 616.08L1476.52 641.04C1470.28 647.92 1462.6 653.2 1453.48 656.88C1444.36 660.4 1433.56 662.16 1421.08 662.16ZM1540.8 660L1487.28 529.92H1534.08L1576.8 638.64H1553.28L1598.16 529.92H1641.6L1587.84 660H1540.8ZM1739.08 663.36C1725.8 663.36 1713.48 661.28 1702.12 657.12C1690.76 652.8 1680.92 646.72 1672.6 638.88C1664.44 631.04 1658.04 621.84 1653.4 611.28C1648.76 600.56 1646.44 588.8 1646.44 576C1646.44 563.2 1648.76 551.52 1653.4 540.96C1658.04 530.24 1664.52 520.96 1672.84 513.12C1681.16 505.28 1691 499.28 1702.36 495.12C1713.88 490.8 1726.44 488.64 1740.04 488.64C1755.88 488.64 1770.04 491.28 1782.52 496.56C1795 501.84 1805.32 509.44 1813.48 519.36L1783.24 546.72C1777.48 540.48 1771.24 535.84 1764.52 532.8C1757.96 529.6 1750.6 528 1742.44 528C1735.24 528 1728.68 529.12 1722.76 531.36C1716.84 533.6 1711.8 536.88 1707.64 541.2C1703.48 545.36 1700.2 550.4 1697.8 556.32C1695.56 562.08 1694.44 568.64 1694.44 576C1694.44 583.04 1695.56 589.52 1697.8 595.44C1700.2 601.36 1703.48 606.48 1707.64 610.8C1711.8 614.96 1716.76 618.24 1722.52 620.64C1728.44 622.88 1734.92 624 1741.96 624C1749 624 1755.88 622.88 1762.6 620.64C1769.32 618.24 1776.12 614.24 1783 608.64L1809.64 642C1800.04 648.88 1788.92 654.16 1776.28 657.84C1763.64 661.52 1751.24 663.36 1739.08 663.36ZM1767.64 635.76V572.4H1809.64V642L1767.64 635.76ZM1837.61 660V529.92H1881.05V567.84L1874.57 557.04C1878.41 547.28 1884.65 540 1893.29 535.2C1901.93 530.24 1912.41 527.76 1924.73 527.76V568.8C1922.65 568.48 1920.81 568.32 1919.21 568.32C1917.77 568.16 1916.17 568.08 1914.41 568.08C1905.13 568.08 1897.61 570.64 1891.85 575.76C1886.09 580.72 1883.21 588.88 1883.21 600.24V660H1837.61ZM2007.65 662.16C1993.41 662.16 1980.77 659.28 1969.73 653.52C1958.69 647.76 1949.97 639.84 1943.57 629.76C1937.33 619.52 1934.21 607.84 1934.21 594.72C1934.21 581.6 1937.33 570 1943.57 559.92C1949.97 549.84 1958.69 542 1969.73 536.4C1980.77 530.64 1993.41 527.76 2007.65 527.76C2021.89 527.76 2034.53 530.64 2045.57 536.4C2056.77 542 2065.49 549.84 2071.73 559.92C2077.97 570 2081.09 581.6 2081.09 594.72C2081.09 607.84 2077.97 619.52 2071.73 629.76C2065.49 639.84 2056.77 647.76 2045.57 653.52C2034.53 659.28 2021.89 662.16 2007.65 662.16ZM2007.65 625.92C2012.93 625.92 2017.57 624.72 2021.57 622.32C2025.73 619.92 2029.01 616.4 2031.41 611.76C2033.81 606.96 2035.01 601.28 2035.01 594.72C2035.01 588.16 2033.81 582.64 2031.41 578.16C2029.01 573.52 2025.73 570 2021.57 567.6C2017.57 565.2 2012.93 564 2007.65 564C2002.53 564 1997.89 565.2 1993.73 567.6C1989.73 570 1986.45 573.52 1983.89 578.16C1981.49 582.64 1980.29 588.16 1980.29 594.72C1980.29 601.28 1981.49 606.96 1983.89 611.76C1986.45 616.4 1989.73 619.92 1993.73 622.32C1997.89 624.72 2002.53 625.92 2007.65 625.92ZM2156.94 662.16C2146.38 662.16 2136.86 660.08 2128.38 655.92C2120.06 651.76 2113.5 645.28 2108.7 636.48C2104.06 627.52 2101.74 616.24 2101.74 602.64V529.92H2147.34V595.2C2147.34 605.28 2149.18 612.48 2152.86 616.8C2156.7 621.12 2162.06 623.28 2168.94 623.28C2173.42 623.28 2177.5 622.24 2181.18 620.16C2184.86 618.08 2187.82 614.8 2190.06 610.32C2192.3 605.68 2193.42 599.76 2193.42 592.56V529.92H2239.02V660H2195.58V623.28L2203.98 633.6C2199.5 643.2 2193.02 650.4 2184.54 655.2C2176.06 659.84 2166.86 662.16 2156.94 662.16ZM2353.11 527.76C2363.19 527.76 2372.31 529.84 2380.47 534C2388.63 538 2395.03 544.24 2399.67 552.72C2404.47 561.2 2406.87 572.16 2406.87 585.6V660H2361.27V593.04C2361.27 583.76 2359.35 577.04 2355.51 572.88C2351.83 568.56 2346.63 566.4 2339.91 566.4C2335.11 566.4 2330.71 567.52 2326.71 569.76C2322.71 571.84 2319.59 575.12 2317.35 579.6C2315.11 584.08 2313.99 589.92 2313.99 597.12V660H2268.39V529.92H2311.83V566.88L2303.43 556.08C2308.39 546.64 2315.19 539.6 2323.83 534.96C2332.47 530.16 2342.23 527.76 2353.11 527.76ZM2493.78 662.16C2481.94 662.16 2471.14 659.44 2461.38 654C2451.78 648.4 2444.1 640.64 2438.34 630.72C2432.58 620.64 2429.7 608.64 2429.7 594.72C2429.7 580.96 2432.58 569.12 2438.34 559.2C2444.1 549.12 2451.78 541.36 2461.38 535.92C2471.14 530.48 2481.94 527.76 2493.78 527.76C2504.98 527.76 2514.42 530.16 2522.1 534.96C2529.94 539.76 2535.86 547.12 2539.86 557.04C2543.86 566.96 2545.86 579.52 2545.86 594.72C2545.86 610.24 2543.94 622.96 2540.1 632.88C2536.26 642.8 2530.5 650.16 2522.82 654.96C2515.14 659.76 2505.46 662.16 2493.78 662.16ZM2503.38 625.92C2508.5 625.92 2513.06 624.72 2517.06 622.32C2521.22 619.92 2524.5 616.4 2526.9 611.76C2529.3 606.96 2530.5 601.28 2530.5 594.72C2530.5 588.16 2529.3 582.64 2526.9 578.16C2524.5 573.52 2521.22 570 2517.06 567.6C2513.06 565.2 2508.5 564 2503.38 564C2498.1 564 2493.38 565.2 2489.22 567.6C2485.22 570 2482.02 573.52 2479.62 578.16C2477.22 582.64 2476.02 588.16 2476.02 594.72C2476.02 601.28 2477.22 606.96 2479.62 611.76C2482.02 616.4 2485.22 619.92 2489.22 622.32C2493.38 624.72 2498.1 625.92 2503.38 625.92ZM2531.94 660V637.68L2532.18 594.72L2529.78 551.76V481.92H2575.38V660H2531.94Z" fill="white"/>
<path d="M900 398C900 375.909 917.909 358 940 358H1004V638C1004 660.091 986.091 678 964 678H900V398Z" fill="white"/>
<path d="M731 659C731 589.964 786.964 534 856 534C857.657 534 859 535.343 859 537V790C788.308 790 731 732.692 731 662V659Z" fill="white"/>
</svg>
