<svg width="1419" height="182" viewBox="0 0 1419 182" fill="none" xmlns="http://www.w3.org/2000/svg">
<path d="M-0.000781178 178.08V10.0801H79.4392C97.9992 10.0801 114.319 13.5201 128.399 20.4001C142.479 27.2801 153.439 36.9601 161.279 49.4401C169.279 61.9201 173.279 76.8001 173.279 94.0801C173.279 111.2 169.279 126.08 161.279 138.72C153.439 151.2 142.479 160.88 128.399 167.76C114.319 174.64 97.9992 178.08 79.4392 178.08H-0.000781178ZM47.5192 140.16H77.5192C87.1192 140.16 95.4392 138.4 102.479 134.88C109.679 131.2 115.279 125.92 119.279 119.04C123.279 112 125.279 103.68 125.279 94.0801C125.279 84.3201 123.279 76.0001 119.279 69.1201C115.279 62.2401 109.679 57.0401 102.479 53.5201C95.4392 49.8401 87.1192 48.0001 77.5192 48.0001H47.5192V140.16ZM264.28 180.24C248.92 180.24 235.48 177.36 223.96 171.6C212.6 165.68 203.72 157.68 197.32 147.6C191.08 137.36 187.96 125.76 187.96 112.8C187.96 99.8401 191 88.3201 197.08 78.2401C203.32 68.0001 211.88 60.0801 222.76 54.4801C233.64 48.7201 245.88 45.8401 259.48 45.8401C272.28 45.8401 283.96 48.4801 294.52 53.7601C305.08 58.8801 313.48 66.4801 319.72 76.5601C325.96 86.6401 329.08 98.8801 329.08 113.28C329.08 114.88 329 116.72 328.84 118.8C328.68 120.88 328.52 122.8 328.36 124.56H225.4V100.56H304.12L286.84 107.28C287 101.36 285.88 96.2401 283.48 91.9201C281.24 87.6001 278.04 84.2401 273.88 81.8401C269.88 79.4401 265.16 78.2401 259.72 78.2401C254.28 78.2401 249.48 79.4401 245.32 81.8401C241.32 84.2401 238.2 87.6801 235.96 92.1601C233.72 96.4801 232.6 101.6 232.6 107.52V114.48C232.6 120.88 233.88 126.4 236.44 131.04C239.16 135.68 243 139.28 247.96 141.84C252.92 144.24 258.84 145.44 265.72 145.44C272.12 145.44 277.56 144.56 282.04 142.8C286.68 140.88 291.24 138 295.72 134.16L319.72 159.12C313.48 166 305.8 171.28 296.68 174.96C287.56 178.48 276.76 180.24 264.28 180.24ZM384.001 178.08L330.481 48.0001H377.281L420.001 156.72H396.481L441.361 48.0001H484.801L431.041 178.08H384.001ZM582.28 181.44C569 181.44 556.68 179.36 545.32 175.2C533.96 170.88 524.12 164.8 515.8 156.96C507.64 149.12 501.24 139.92 496.6 129.36C491.96 118.64 489.64 106.88 489.64 94.0801C489.64 81.2801 491.96 69.6001 496.6 59.0401C501.24 48.3201 507.72 39.0401 516.04 31.2001C524.36 23.3601 534.2 17.3601 545.56 13.2001C557.08 8.88007 569.64 6.72007 583.24 6.72007C599.08 6.72007 613.24 9.36007 625.72 14.6401C638.2 19.9201 648.52 27.5201 656.68 37.4401L626.44 64.8001C620.68 58.5601 614.44 53.9201 607.72 50.8801C601.16 47.6801 593.8 46.0801 585.64 46.0801C578.44 46.0801 571.88 47.2001 565.96 49.4401C560.04 51.6801 555 54.9601 550.84 59.2801C546.68 63.4401 543.4 68.4801 541 74.4001C538.76 80.1601 537.64 86.7201 537.64 94.0801C537.64 101.12 538.76 107.6 541 113.52C543.4 119.44 546.68 124.56 550.84 128.88C555 133.04 559.96 136.32 565.72 138.72C571.64 140.96 578.12 142.08 585.16 142.08C592.2 142.08 599.08 140.96 605.8 138.72C612.52 136.32 619.32 132.32 626.2 126.72L652.84 160.08C643.24 166.96 632.12 172.24 619.48 175.92C606.84 179.6 594.44 181.44 582.28 181.44ZM610.84 153.84V90.4801H652.84V160.08L610.84 153.84ZM680.808 178.08V48.0001H724.248V85.9201L717.768 75.1201C721.608 65.3601 727.848 58.0801 736.488 53.2801C745.128 48.3201 755.608 45.8401 767.928 45.8401V86.8801C765.848 86.5601 764.008 86.4001 762.408 86.4001C760.968 86.2401 759.368 86.1601 757.608 86.1601C748.328 86.1601 740.808 88.7201 735.048 93.8401C729.288 98.8001 726.408 106.96 726.408 118.32V178.08H680.808ZM850.854 180.24C836.614 180.24 823.974 177.36 812.934 171.6C801.894 165.84 793.174 157.92 786.774 147.84C780.534 137.6 777.414 125.92 777.414 112.8C777.414 99.6801 780.534 88.0801 786.774 78.0001C793.174 67.9201 801.894 60.0801 812.934 54.4801C823.974 48.7201 836.614 45.8401 850.854 45.8401C865.094 45.8401 877.734 48.7201 888.774 54.4801C899.974 60.0801 908.694 67.9201 914.934 78.0001C921.174 88.0801 924.294 99.6801 924.294 112.8C924.294 125.92 921.174 137.6 914.934 147.84C908.694 157.92 899.974 165.84 888.774 171.6C877.734 177.36 865.094 180.24 850.854 180.24ZM850.854 144C856.134 144 860.774 142.8 864.774 140.4C868.934 138 872.214 134.48 874.614 129.84C877.014 125.04 878.214 119.36 878.214 112.8C878.214 106.24 877.014 100.72 874.614 96.2401C872.214 91.6001 868.934 88.0801 864.774 85.6801C860.774 83.2801 856.134 82.0801 850.854 82.0801C845.734 82.0801 841.094 83.2801 836.934 85.6801C832.934 88.0801 829.654 91.6001 827.094 96.2401C824.694 100.72 823.494 106.24 823.494 112.8C823.494 119.36 824.694 125.04 827.094 129.84C829.654 134.48 832.934 138 836.934 140.4C841.094 142.8 845.734 144 850.854 144ZM1000.14 180.24C989.577 180.24 980.057 178.16 971.577 174C963.257 169.84 956.697 163.36 951.897 154.56C947.257 145.6 944.937 134.32 944.937 120.72V48.0001H990.537V113.28C990.537 123.36 992.377 130.56 996.057 134.88C999.897 139.2 1005.26 141.36 1012.14 141.36C1016.62 141.36 1020.7 140.32 1024.38 138.24C1028.06 136.16 1031.02 132.88 1033.26 128.4C1035.5 123.76 1036.62 117.84 1036.62 110.64V48.0001H1082.22V178.08H1038.78V141.36L1047.18 151.68C1042.7 161.28 1036.22 168.48 1027.74 173.28C1019.26 177.92 1010.06 180.24 1000.14 180.24ZM1196.31 45.8401C1206.39 45.8401 1215.51 47.9201 1223.67 52.0801C1231.83 56.0801 1238.23 62.3201 1242.87 70.8001C1247.67 79.2801 1250.07 90.2401 1250.07 103.68V178.08H1204.47V111.12C1204.47 101.84 1202.55 95.1201 1198.71 90.9601C1195.03 86.6401 1189.83 84.4801 1183.11 84.4801C1178.31 84.4801 1173.91 85.6001 1169.91 87.8401C1165.91 89.9201 1162.79 93.2001 1160.55 97.6801C1158.31 102.16 1157.19 108 1157.19 115.2V178.08H1111.59V48.0001H1155.03V84.9601L1146.63 74.1601C1151.59 64.7201 1158.39 57.6801 1167.03 53.0401C1175.67 48.2401 1185.43 45.8401 1196.31 45.8401ZM1336.98 180.24C1325.14 180.24 1314.34 177.52 1304.58 172.08C1294.98 166.48 1287.3 158.72 1281.54 148.8C1275.78 138.72 1272.9 126.72 1272.9 112.8C1272.9 99.0401 1275.78 87.2001 1281.54 77.2801C1287.3 67.2001 1294.98 59.4401 1304.58 54.0001C1314.34 48.5601 1325.14 45.8401 1336.98 45.8401C1348.18 45.8401 1357.62 48.2401 1365.3 53.0401C1373.14 57.8401 1379.06 65.2001 1383.06 75.1201C1387.06 85.0401 1389.06 97.6001 1389.06 112.8C1389.06 128.32 1387.14 141.04 1383.3 150.96C1379.46 160.88 1373.7 168.24 1366.02 173.04C1358.34 177.84 1348.66 180.24 1336.98 180.24ZM1346.58 144C1351.7 144 1356.26 142.8 1360.26 140.4C1364.42 138 1367.7 134.48 1370.1 129.84C1372.5 125.04 1373.7 119.36 1373.7 112.8C1373.7 106.24 1372.5 100.72 1370.1 96.2401C1367.7 91.6001 1364.42 88.0801 1360.26 85.6801C1356.26 83.2801 1351.7 82.0801 1346.58 82.0801C1341.3 82.0801 1336.58 83.2801 1332.42 85.6801C1328.42 88.0801 1325.22 91.6001 1322.82 96.2401C1320.42 100.72 1319.22 106.24 1319.22 112.8C1319.22 119.36 1320.42 125.04 1322.82 129.84C1325.22 134.48 1328.42 138 1332.42 140.4C1336.58 142.8 1341.3 144 1346.58 144ZM1375.14 178.08V155.76L1375.38 112.8L1372.98 69.8401V6.77109e-05H1418.58V178.08H1375.14Z" fill="white"/>
</svg>
